<?xml version="1.0" encoding="UTF-8" standalone="no"?>
<!-- Created with enve https://maurycyliebner.github.io -->

<svg xmlns="http://www.w3.org/2000/svg" viewBox="0 0 480 400" xmlns:xlink="http://www.w3.org/1999/xlink">
 <g transform="translate(235.519 242.305)">
  <g transform="translate(5.88113 -32.4438)">
   <g transform="rotate(0)">
    <g transform="scale(2.8 2.8)">
     <g transform="skewX(0) skewY(0)">
      <g opacity="1" transform="translate(-235.519 -242.305)">
       <g>
        <g transform="translate(252.979 249.28)">
         <g>
          <animateTransform values="0 0;0 0;0 -0.8;0 0;0 -0.8;0 0" calcMode="spline" type="translate" attributeName="transform" keyTimes="0;0;0.25;0.5;0.75;1" dur="4s" keySplines="0 0 1 1;0 0 1 1;0 0 1 1;0 0 1 1;0 0 1 1" repeatCount="indefinite"/>
          <g transform="rotate(0)">
           <g>
            <animateTransform values="1 1;1 1;0.97 1;1 1;0.97 1;1 1" calcMode="spline" type="scale" attributeName="transform" keyTimes="0;0;0.25;0.5;0.75;1" dur="4s" keySplines="0 0 1 1;0 0 1 1;0 0 1 1;0 0 1 1;0 0 1 1" repeatCount="indefinite"/>
            <g>
             <animateTransform values="1 1;1 1;1 1.013;1 1;1 1.013;1 1" calcMode="spline" type="scale" attributeName="transform" keyTimes="0;0;0.25;0.5;0.75;1" dur="4s" keySplines="0 0 1 1;0 0 1 1;0 0 1 1;0 0 1 1;0 0 1 1" repeatCount="indefinite"/>
             <g transform="skewX(0) skewY(0)">
              <g opacity="1" transform="translate(-252.979 -249.28)">
               <g>
                <g transform="translate(0 0)">
                 <g transform="translate(315.097 278.223)">
                  <g transform="rotate(0)">
                   <g transform="scale(-1 1)">
                    <g transform="skewX(0) skewY(0)">
                     <g opacity="1" transform="translate(0 0)">
                      <path stroke="none" stroke-width="3.5" d="M4.9184 4.67545C20.1975 35.0747 106.245 32.9168 122.695 1.74397C134.276 -20.2006 123.308 -74.2495 50.6172 -73.984C7.63642 -73.827 -7.65609 -20.3427 4.9184 4.67545Z" fill="#17212d"/>
                     </g>
                    </g>
                   </g>
                  </g>
                 </g>
                </g>
                <g transform="translate(0 0)">
                 <g transform="translate(272.909 260.191)">
                  <g transform="rotate(0)">
                   <g transform="scale(1 1)">
                    <g transform="skewX(0) skewY(0)">
                     <g opacity="1" transform="translate(0 0)">
                      <path stroke="none" stroke-width="3.5" d="M-0.151409 7.94699C-28.6709 -9.10098 -34.008 23.2994 -66.0031 32.3455C-30.3356 53.4403 23.1215 44.1604 36.9723 24.7859C36.9723 24.7859 25.6143 -10.554 -0.151409 7.94699Z" fill="#2d3442"/>
                     </g>
                    </g>
                   </g>
                  </g>
                 </g>
                </g>
                <g transform="translate(0 0)">
                 <g transform="translate(315.097 278.021)">
                  <g transform="rotate(0)">
                   <g transform="scale(-1 1)">
                    <g transform="skewX(0) skewY(0)">
                     <g opacity="1" transform="translate(0 0)">
                      <path stroke="#f8f8f8" stroke-width="3.5" d="M4.9184 4.67545C20.1975 35.0747 106.77 31.8148 123.22 0.642029C134.8 -21.3025 123.308 -74.2495 50.6172 -73.984C7.63642 -73.827 -7.65609 -20.3427 4.9184 4.67545Z" fill="none"/>
                     </g>
                    </g>
                   </g>
                  </g>
                 </g>
                </g>
                <g transform="translate(234.501 219.407)">
                 <g>
                  <animateTransform values="0 0;0 0;1 0;0 0;1 0;0 0" calcMode="spline" type="translate" attributeName="transform" keyTimes="0;0;0.25;0.5;0.75;1" dur="4s" keySplines="0 0 1 1;0 0 1 1;0 0 1 1;0 0 1 1;0 0 1 1" repeatCount="indefinite"/>
                  <g transform="translate(0 0)">
                   <g>
                    <animateTransform values="0;0;2;0;2;0" calcMode="spline" type="rotate" attributeName="transform" keyTimes="0;0;0.25;0.5;0.75;1" dur="4s" keySplines="0 0 1 1;0 0 1 1;0 0 1 1;0 0 1 1;0 0 1 1" repeatCount="indefinite"/>
                    <g transform="scale(1 1)">
                     <g transform="skewX(0) skewY(0)">
                      <g opacity="1" transform="translate(-234.501 -219.407)">
                       <g>
                        <g transform="translate(0 0)">
                         <g transform="translate(250.644 220.369)">
                          <g transform="rotate(0)">
                           <g transform="scale(-1 1)">
                            <g transform="skewX(0) skewY(0)">
                             <g opacity="1" transform="translate(0 0)">
                              <path stroke="#f8f8f8" stroke-width="3.5" d="M-6.40435 -7.4927C0.86859 -21.2355 30.866 -24.349 36.631 -24.9757C42.396 -25.6024 34.5484 22.5715 31.3598 23.062" fill="#17212d"/>
                             </g>
                            </g>
                           </g>
                          </g>
                         </g>
                        </g>
                        <g transform="translate(0 0)">
                         <g transform="translate(220.812 203.192)">
                          <g transform="rotate(0)">
                           <g transform="scale(1 1)">
                            <g transform="skewX(0) skewY(0)">
                             <g opacity="1" transform="translate(0 0)">
                              <path stroke="none" stroke-width="3.5" d="M0.596027 -1.99617C-6.93221 -3.4731 -4.71716 0.738361 2.81397 4.94777C-5.27969 -1.35575 -7.5353 3.48453 3.34573 11.962C-5.6926 2.07417 -6.71586 9.0603 2.83767 18.59C-4.13944 8.90589 -4.9891 17.8623 0.500267 21.2244C-4.71957 19.4227 -1.47377 26.5452 3.62635 35.3381C11.6901 35.5397 32.2066 21.7091 32.0076 14.3633C26.3655 3.792 3.56336 -1.41402 0.596027 -1.99617Z" fill="#2d3442"/>
                             </g>
                            </g>
                           </g>
                          </g>
                         </g>
                        </g>
                       </g>
                      </g>
                     </g>
                    </g>
                   </g>
                  </g>
                 </g>
                </g>
                <g transform="translate(296.659 218.139)">
                 <g transform="translate(-1 0)">
                  <g>
                   <animateTransform values="0;0;-2;0;-2;0" calcMode="spline" type="rotate" attributeName="transform" keyTimes="0;0;0.25;0.5;0.75;1" dur="4s" keySplines="0 0 1 1;0 0 1 1;0 0 1 1;0 0 1 1;0 0 1 1" repeatCount="indefinite"/>
                   <g transform="scale(1 1)">
                    <g transform="skewX(0) skewY(0)">
                     <g opacity="1" transform="translate(-296.659 -218.139)">
                      <g>
                       <g transform="translate(0 0)">
                        <g transform="translate(279.227 218.981)">
                         <g transform="rotate(0)">
                          <g transform="scale(1 1)">
                           <g transform="skewX(0) skewY(0)">
                            <g opacity="1" transform="translate(0 0)">
                             <path stroke="#f8f8f8" stroke-width="3.5" d="M-3.89377 -5.81899C3.37916 -19.5618 30.866 -24.349 36.631 -24.9757C42.396 -25.6024 35.0418 21.3407 31.1173 23.303" fill="#17212d"/>
                            </g>
                           </g>
                          </g>
                         </g>
                        </g>
                       </g>
                       <g transform="translate(0 0)">
                        <g transform="translate(309.633 202.077)">
                         <g transform="rotate(0)">
                          <g transform="scale(-1 1)">
                           <g transform="skewX(0) skewY(0)">
                            <g opacity="1" transform="translate(0 0)">
                             <path stroke="none" stroke-width="3.5" d="M0.596027 -1.99617C-6.93221 -3.4731 -4.71716 0.738361 2.81397 4.94777C-5.27969 -1.35575 -7.5353 3.48453 3.34573 11.962C-5.6926 2.07417 -6.71586 9.0603 2.83767 18.59C-4.13944 8.90589 -4.9891 17.8623 0.500267 21.2244C-4.71957 19.4227 -1.47377 26.5452 3.62635 35.3381C11.6901 35.5397 29.1451 21.5633 28.9461 14.2175C23.304 3.64622 3.56336 -1.41402 0.596027 -1.99617Z" fill="#2d3442"/>
                            </g>
                           </g>
                          </g>
                         </g>
                        </g>
                       </g>
                      </g>
                     </g>
                    </g>
                   </g>
                  </g>
                 </g>
                </g>
                <g transform="translate(272.577 259.716)">
                 <g transform="translate(0 0)">
                  <g>
                   <animateTransform values="0 0;0 0;0 -1;0 0;0 -1;0 0" calcMode="spline" type="translate" attributeName="transform" keyTimes="0;0;0.25;0.5;0.75;1" dur="4s" keySplines="0 0 1 1;0 0 1 1;0 0 1 1;0 0 1 1;0 0 1 1" repeatCount="indefinite"/>
                   <g transform="rotate(0)">
                    <g transform="scale(1 0.981333)">
                     <g transform="skewX(0) skewY(0)">
                      <g opacity="1" transform="translate(-272.577 -259.716)">
                       <g>
                        <g transform="translate(0 0)">
                         <g transform="translate(284.547 243.278)">
                          <g transform="rotate(0)">
                           <g transform="scale(1 1)">
                            <g transform="skewX(0) skewY(0)">
                             <g opacity="1" transform="translate(0 0)">
                              <path stroke="#f8f8f8" stroke-width="2" d="M-2.75061 22.5633C-2.9613 18.1425 -0.327218 24.1644 2.23386 24.2046C4.79494 24.2448 7.54185 18.6012 7.54185 22.7243C7.54185 24.0811 4.7459 27.5642 2.16166 27.5639C-0.740676 27.5636 -2.68201 24.0026 -2.75061 22.5633Z" fill="#f8f8f8"/>
                             </g>
                            </g>
                           </g>
                          </g>
                         </g>
                        </g>
                        <g transform="translate(0 0)">
                         <g transform="translate(257.085 243.829)">
                          <g transform="rotate(0)">
                           <g transform="scale(1 1)">
                            <g transform="skewX(0) skewY(0)">
                             <g opacity="1" transform="translate(0 0)">
                              <path stroke="#f8f8f8" stroke-width="2" d="M-3.09503 21.4197C-3.21686 18.989 -0.666873 24.031 1.89421 24.0712C4.45529 24.1115 7.19638 18.9636 7.03914 21.5806C6.88424 24.1587 4.35108 27.3868 1.84508 27.3466C-0.660924 27.3064 -2.97256 23.863 -3.09503 21.4197Z" fill="#f8f8f8"/>
                             </g>
                            </g>
                           </g>
                          </g>
                         </g>
                        </g>
                       </g>
                      </g>
                     </g>
                    </g>
                   </g>
                  </g>
                 </g>
                </g>
               </g>
              </g>
             </g>
            </g>
           </g>
          </g>
         </g>
        </g>
        <g transform="translate(175.322 233.514)">
         <g>
          <animateTransform values="0 0;0 0;-0.5 0;0 0;-0.5 0;0 0" calcMode="spline" type="translate" attributeName="transform" keyTimes="0;0;0.25;0.5;0.75;1" dur="4s" keySplines="0 0 1 1;0 0 1 1;0 0 1 1;0 0 1 1;0 0 1 1" repeatCount="indefinite"/>
          <g transform="translate(0 0)">
           <g>
            <animateTransform values="0;0;-0.5;0;-0.5;0" calcMode="spline" type="rotate" attributeName="transform" keyTimes="0;0;0.25;0.5;0.75;1" dur="4s" keySplines="0 0 1 1;0 0 1 1;0 0 1 1;0 0 1 1;0 0 1 1" repeatCount="indefinite"/>
            <g transform="scale(0.96 1)">
             <g>
              <animateTransform values="0;0;2.7;0;2.7;0" calcMode="spline" type="skewX" attributeName="transform" keyTimes="0;0;0.25;0.5;0.75;1" dur="4s" keySplines="0 0 1 1;0 0 1 1;0 0 1 1;0 0 1 1;0 0 1 1" repeatCount="indefinite"/>
              <animateTransform values="0;0;-0.9;0;-0.9;0" calcMode="spline" type="skewY" attributeName="transform" keyTimes="0;0;0.25;0.5;0.75;1" dur="4s" keySplines="0 0 1 1;0 0 1 1;0 0 1 1;0 0 1 1;0 0 1 1" repeatCount="indefinite"/>
              <g opacity="1" transform="translate(-175.322 -233.514)">
               <g>
                <g transform="translate(0 0)">
                 <g transform="translate(189.541 269.345)">
                  <g transform="rotate(0)">
                   <g transform="scale(-1 -1)">
                    <g transform="skewX(0) skewY(0)">
                     <g opacity="1" transform="translate(0 0)">
                      <path stroke="none" stroke-width="3.5" d="M2.38855 -1.00695C-0.579555 -15.6623 -10.5332 -18.8567 -24.7029 -22.4989C-44.9462 -27.7023 -96.3228 -13.1998 -98.4958 -24.1747C-100.669 -35.1496 -63.5461 -37.7816 -38.5943 -37.3798C-22.0982 -37.1141 4.93016 -31.8736 11.9195 -12.0965C18.9088 7.68061 2.48313 16.9 2.48313 16.9" fill="#17212d"/>
                     </g>
                    </g>
                   </g>
                  </g>
                 </g>
                </g>
                <g transform="translate(0 0)">
                 <g transform="translate(273.889 289.114)">
                  <g transform="rotate(0)">
                   <g transform="scale(1 1)">
                    <g transform="skewX(0) skewY(0)">
                     <g opacity="1" transform="translate(0 0)">
                      <path stroke="none" stroke-width="1" d="M-5.35778 0.485255C-5.35778 0.485255 -6.10219 1.61804 -6.10219 1.61804C-8.36341 1.30969 -8.54655 5.32247 -5.9433 5.67746C-3.68552 5.71654 -3.60647 9.50753 -5.84797 9.44989C-7.16324 9.19514 -8.85055 12.4563 -5.68935 13.4122C-5.68935 13.4122 -5.02511 15.2247 -5.02511 15.2247C-5.02511 15.2247 14.3963 10.5758 14.1213 5.24778C13.8463 -0.080218 -5.35934 0.48191 -5.35778 0.485255Z" fill="#2d3442"/>
                     </g>
                    </g>
                   </g>
                  </g>
                 </g>
                </g>
                <g transform="translate(0 0)">
                 <g transform="translate(189.541 269.345)">
                  <g transform="rotate(0)">
                   <g transform="scale(-1 -1)">
                    <g transform="skewX(0) skewY(0)">
                     <g opacity="1" transform="translate(0 0)">
                      <path stroke="#f8f8f8" stroke-width="3.5" d="M0.496974 -1.46185C-2.47113 -16.1172 -10.8836 -16.9292 -25.0534 -20.5714C-45.2966 -25.7748 -96.1682 -12.2721 -98.4958 -24.1747C-100.823 -36.0774 -63.5461 -37.7816 -38.5943 -37.3798C-22.0982 -37.1141 6.8577 -32.0489 13.847 -12.2717C20.8363 7.50538 1.39168 17.3553 1.39168 17.3553" fill="none"/>
                     </g>
                    </g>
                   </g>
                  </g>
                 </g>
                </g>
               </g>
              </g>
             </g>
            </g>
           </g>
          </g>
         </g>
        </g>
       </g>
      </g>
     </g>
    </g>
   </g>
  </g>
 </g>
 <defs/>
</svg>
